<svg version="1.1" class="" id="s1" xmlns="http://www.w3.org/2000/svg" xmlns:xlink="http://www.w3.org/1999/xlink" x="0px" y="0px" width="199px" height="397px" viewBox="0 0 199 397" style="enable-background:new 0 0 199 397;" xml:space="preserve">
      <path class="n2" d="M52.8,130.2c13.5-10,29.5-15.5,47.5-15.5c51.5,0,88,46.5,88,107c0,61-36.5,107-88,107s-88-46-88-107
      C12.3,182.3,27.8,148.8,52.8,130.2l50.5-14.5v210c0,0,41-16.1,41-49.9c0-48.1-104.5-49.4-104.5-110.6c0-5.8,2-14,7-22
      c10.5-16.5,31-28.5,59-28.5c41,0,63,22.5,63,52c0,31-22,50-55,72.5c-30.5,21.5-64.5,46-80,87.5h138c0-46.7-132-66.1-132-162.5
      c0-5,2.5-14.5,7.5-22c10.5-16,30.5-27.5,58-27.5c44,0,68,28.5,68,59.5c0,28.5-17,50.5-46,61c-8,3-14.5,4.5-23,5.5
      c7,0.5,14,1.5,22.5,4c31.5,9.5,51,31,51,63.5c0,39-30.5,69.5-75,69.5c-29,0-50.5-10-61.5-25c-6-7.5-8-17-8-22
      c0-110.4,152.8-40,152.8-40H10.6l127-177.5v263c-0.1-55.3-101.5-80-101.5-37c0,5.2,3.5,10.5,7.5,15.5c10.5,13.5,31,24.5,59.5,24.5
      c45.5,0,79-31.5,79-77c0-48-34-74.5-83-74.5c-19.5,0-38.5,4.5-52.5,13l15-123h103.6c2-5.2-0.1-25.7-12-37.5
      c-10-10-26-17.5-46.5-17.5c-47.5,0-93,47.5-93,154.5c0,48.5,8.5,73,25,90c14.5,14.5,33,22.5,57,22.5c44,0,78.5-37,78.5-82.5
      s-32.5-79.5-78.5-79.5c-39,0-66,26-75.5,55c-2,6-3,12-3.5,18c7.3-7.3,10.4-19.7,10.4-67.5v-56h144.5L62.2,375.7
      c241,0-95.8-235,38.6-235c38.6,0,70-28.2,70-63s-31.4-63-70-63s-70,28.2-70,63s31.4,63,70,63l0,0c43,0,78,31.1,78,69.5
      s-35,69.5-78,69.5c-43.1,0-78-31.1-78-69.5s34.9-69.5,78-69.5c52.8,0,79,34.3,79,63.5c-0.5,6-1.5,12-3.5,18c-9.5,29-36.5,55-75.5,55
      c-46,0-78.5-34-78.5-79.5s34.5-82.5,78.5-82.5c24,0,42.5,8,57,22.5c16.5,17,25,41.5,25,90c0,107-45.5,154.5-93,154.5
      c-20.5,0-36.5-7.5-46.5-17.5c-6.5-6.5-9.5-14-9.5-19C383,345.7,0,171.5,52.8,130.2z"></path> </svg>